<?xml version="1.0" encoding="UTF-8"?>
<svg width="42px" height="42px" viewBox="0 0 42 42" version="1.1" xmlns="http://www.w3.org/2000/svg" xmlns:xlink="http://www.w3.org/1999/xlink">
    <!-- Generator: Sketch 52.5 (67469) - http://www.bohemiancoding.com/sketch -->
    <title>linkedin</title>
    <desc>Created with Sketch.</desc>
    <g id="Page-1" stroke="none" stroke-width="1" fill="none" fill-rule="evenodd">
        <g id="linkedin" fill="#0077B7" fill-rule="nonzero">
            <path d="M38.2007592,0 L3.79924084,0 C1.701,0 0,1.701 0,3.79924084 L0,38.2006492 C0,40.299 1.701,42 3.79924084,42 L38.2006492,42 C40.299,42 42,40.299 42,38.2006492 L42,3.79924084 C42,1.701 40.299,0 38.2007592,0 Z M12.9965812,36.2655707 C12.9965812,36.8762199 12.5015969,37.3712042 11.8909476,37.3712042 L7.1845288,37.3712042 C6.57387958,37.3712042 6.07889529,36.8762199 6.07889529,36.2655707 L6.07889529,16.5364555 C6.07889529,15.9258063 6.57387958,15.430822 7.1845288,15.430822 L11.8909476,15.430822 C12.5015969,15.430822 12.9965812,15.9258063 12.9965812,16.5364555 L12.9965812,36.2655707 Z M9.53773822,13.5710576 C7.06842408,13.5710576 5.06660733,11.5692408 5.06660733,9.0999267 C5.06660733,6.63061257 7.06842408,4.62879581 9.53773822,4.62879581 C12.0070524,4.62879581 14.0088691,6.63061257 14.0088691,9.0999267 C14.0088691,11.5692408 12.0071623,13.5710576 9.53773822,13.5710576 Z M37.592199,36.3546283 C37.592199,36.9160209 37.1370157,37.3712042 36.575623,37.3712042 L31.525288,37.3712042 C30.9638953,37.3712042 30.508712,36.9160209 30.508712,36.3546283 L30.508712,27.100555 C30.508712,25.7200524 30.9136492,21.0511257 26.901,21.0511257 C23.7884921,21.0511257 23.1571728,24.2468639 23.0304031,25.6810209 L23.0304031,36.3546283 C23.0304031,36.9160209 22.5753298,37.3712042 22.0138272,37.3712042 L17.1292932,37.3712042 C16.5679005,37.3712042 16.1127173,36.9160209 16.1127173,36.3546283 L16.1127173,16.4473979 C16.1127173,15.8860052 16.5679005,15.430822 17.1292932,15.430822 L22.0138272,15.430822 C22.5752199,15.430822 23.0304031,15.8860052 23.0304031,16.4473979 L23.0304031,18.1686283 C24.1845236,16.436623 25.8997068,15.0997696 29.5516178,15.0997696 C37.6384869,15.0997696 37.592199,22.6549319 37.592199,26.8061152 L37.592199,36.3546283 Z" id="Shape"></path>
        </g>
    </g>
</svg>