<?xml version="1.0" encoding="UTF-8"?>
<svg width="42px" height="42px" viewBox="0 0 42 42" version="1.1" xmlns="http://www.w3.org/2000/svg" xmlns:xlink="http://www.w3.org/1999/xlink">
    <!-- Generator: Sketch 52.5 (67469) - http://www.bohemiancoding.com/sketch -->
    <title>In-2C-CMYK-0p25in-TM</title>
    <desc>Created with Sketch.</desc>
    <defs>
        <polygon id="path-1" points="0 0 42 0 42 41.8576667 0 41.8576667"></polygon>
    </defs>
    <g id="Page-1" stroke="none" stroke-width="1" fill="none" fill-rule="evenodd">
        <g id="In-2C-CMYK-0p25in-TM">
            <g id="Group-3">
                <mask id="mask-2" fill="white">
                    <use xlink:href="#path-1"></use>
                </mask>
                <g id="Clip-2"></g>
                <path d="M38.8896667,0 L3.09633333,0 C1.38833333,0 0,1.358 0,3.02633333 L0,38.9713333 C0,40.6466667 1.38833333,42 3.09633333,42 L38.8896667,42 C40.6,42 42,40.6466667 42,38.9713333 L42,3.02633333 C42,1.358 40.6,0 38.8896667,0" id="Fill-1" fill="#0071A1" mask="url(#mask-2)"></path>
            </g>
            <path d="M9.34266667,5.78433333 C11.333,5.78433333 12.9546667,7.40133333 12.9546667,9.394 C12.9546667,11.389 11.333,13.006 9.34266667,13.006 C7.34066667,13.006 5.72833333,11.389 5.72833333,9.394 C5.72833333,7.40133333 7.34066667,5.78433333 9.34266667,5.78433333 Z M6.223,35.791 L12.46,35.791 L12.46,15.7476667 L6.223,15.7476667 L6.223,35.791 Z" id="Fill-4" fill="#FFFFFE"></path>
            <path d="M16.366,15.7476667 L22.337,15.7476667 L22.337,18.4846667 L22.421,18.4846667 C23.254,16.9096667 25.2863333,15.2483333 28.3173333,15.2483333 C34.622,15.2483333 35.7863333,19.3993333 35.7863333,24.7986667 L35.7863333,35.791 L29.5633333,35.791 L29.5633333,26.0446667 C29.5633333,23.7183333 29.5166667,20.7293333 26.3246667,20.7293333 C23.0836667,20.7293333 22.589,23.261 22.589,25.8743333 L22.589,35.791 L16.366,35.791 L16.366,15.7476667" id="Fill-5" fill="#FFFFFE"></path>
        </g>
    </g>
</svg>