<?xml version="1.0" encoding="UTF-8"?>
<svg width="608px" height="190px" viewBox="0 0 608 190" version="1.1" xmlns="http://www.w3.org/2000/svg" xmlns:xlink="http://www.w3.org/1999/xlink">
    <!-- Generator: Sketch 52.5 (67469) - http://www.bohemiancoding.com/sketch -->
    <title>Artboard</title>
    <desc>Created with Sketch.</desc>
    <g id="Artboard" stroke="none" stroke-width="1" fill="none" fill-rule="evenodd">
        <g id="Rare-Bits" transform="translate(2.800000, 35.000000)" fill="#3F52B5" fill-rule="nonzero">
            <path d="M57.5515001,109.469335 L34.7327963,66.4467531 L26.0825687,66.4467531 L26.0825687,109.469335 L1.02673691,109.469335 L1.02673691,1.07080229 L41.2950379,1.07080229 C46.3658864,1.07080229 51.3123752,1.60666546 56.1346524,2.67840768 C60.95693,3.75014985 65.2820008,5.56187755 69.109994,8.11364478 C72.9379876,10.6654121 75.9953652,14.0336943 78.2822182,18.2185927 C80.5690712,22.4034913 81.7124809,27.6090182 81.7124809,33.8353305 C81.7124809,41.1844201 79.7736562,47.3596043 75.8959486,52.3610684 C72.018241,57.362532 66.6491875,60.9349525 59.7886279,63.0784373 L87.3798713,109.469335 L57.5515001,109.469335 Z M56.5075071,34.2946463 C56.5075071,31.7428791 55.985516,29.6759782 54.9415175,28.0938826 C53.8975196,26.5117869 52.5552563,25.286957 50.9146877,24.4193562 C49.2741187,23.5517555 47.4347212,22.9648578 45.396439,22.6586457 C43.3581568,22.3524337 41.3944752,22.1993299 39.5053357,22.1993299 L25.9334268,22.1993299 L25.9334268,47.4616993 L38.0139171,47.4616993 C40.1019136,47.4616993 42.2395922,47.2830785 44.4270169,46.9258311 C46.6144417,46.5685836 48.6029799,45.9306514 50.3926912,45.0120153 C52.1824025,44.0933791 53.6489495,42.7664798 54.7923758,41.0312784 C55.9358025,39.2960764 56.5075071,37.0505548 56.5075071,34.2946463 Z M140.385216,76.2454903 L137.253237,76.2454903 C134.56867,76.2454903 131.859286,76.3730771 129.125006,76.6282538 C126.390724,76.8834304 123.954765,77.3682588 121.817055,78.0827537 C119.679344,78.7972487 117.914516,79.8434573 116.522518,81.2214118 C115.130521,82.5993663 114.434532,84.411094 114.434532,86.6566491 C114.434532,88.0856385 114.75767,89.3104685 115.403955,90.3311755 C116.050239,91.3518825 116.870511,92.1684354 117.864795,92.78086 C118.859079,93.3932841 120.002489,93.8270781 121.295058,94.0822547 C122.587627,94.3374313 123.830464,94.4650177 125.023605,94.4650177 C129.995024,94.4650177 133.798103,93.0615669 136.432957,90.2546226 C139.067809,87.4476787 140.385216,83.6456025 140.385216,78.8482801 L140.385216,76.2454903 Z M95.4935167,43.6340677 C99.8683666,39.3470985 104.963996,36.1319201 110.780557,33.9884358 C116.597118,31.8449509 122.537877,30.7732248 128.603009,30.7732248 C134.866998,30.7732248 140.161481,31.5642608 144.486617,33.1463565 C148.811752,34.7284526 152.316551,37.178112 155.001118,40.4954096 C157.685683,43.8127072 159.649365,47.9975424 160.892221,53.0500419 C162.135075,58.102541 162.756494,64.0991044 162.756494,71.0399111 L162.756494,109.469335 L140.385216,109.469335 L140.385216,101.354755 L139.93779,101.354755 C138.04865,104.518946 135.190127,106.968607 131.362134,108.703808 C127.534139,110.43901 123.383067,111.306597 118.908788,111.306597 C115.925936,111.306597 112.843702,110.898321 109.661993,110.081756 C106.480284,109.265189 103.572047,107.938291 100.937195,106.101018 C98.3023418,104.263746 96.1398066,101.814086 94.4495237,98.7519651 C92.7592413,95.6898446 91.9141123,91.9132859 91.9141123,87.4221751 C91.9141123,81.9103577 93.3806593,77.4703493 96.3137973,74.1020168 C99.2469349,70.7336838 103.025157,68.1309206 107.648578,66.2936478 C112.271999,64.4563755 117.417341,63.2315456 123.08476,62.6191215 C128.75218,62.0066974 134.270373,61.7004898 139.639507,61.7004898 L139.639507,60.4756475 C139.639507,56.6990321 138.346956,53.9176471 135.761819,52.1314102 C133.17668,50.3451734 129.995018,49.452068 126.21674,49.452068 C122.736745,49.452068 119.381087,50.217587 116.149664,51.7486473 C112.918241,53.2797075 110.159144,55.1169522 107.872291,57.260437 L95.4935167,43.6340677 Z M225.192699,53.7390155 C224.098986,53.4328034 223.030146,53.2286652 221.986148,53.1265943 C220.94215,53.024524 219.923024,52.9734891 218.928741,52.9734891 C215.647603,52.9734891 212.888507,53.5859043 210.651368,54.8107525 C208.414227,56.0356007 206.624544,57.5156038 205.282261,59.2508052 C203.939977,60.9860071 202.970565,62.8742868 202.373994,64.9157002 C201.777423,66.9571142 201.479143,68.7433245 201.479143,70.2743847 L201.479143,109.469335 L177.019879,109.469335 L177.019879,33.2229093 L200.584292,33.2229093 L200.584292,44.2464888 L200.882576,44.2464888 C202.771715,40.3678026 205.456241,37.2036586 208.936236,34.7539622 C212.416229,32.3042653 216.443019,31.0794354 221.016727,31.0794354 C222.01101,31.0794354 222.980422,31.1304698 223.924993,31.2325406 C224.869562,31.3346115 225.64012,31.4877153 226.236691,31.6918565 L225.192699,53.7390155 Z M284.312858,62.6191215 C284.312858,58.6383644 283.094878,55.2190477 280.658882,52.3610684 C278.222887,49.5030886 274.568949,48.0741204 269.696956,48.0741204 C267.310674,48.0741204 265.123283,48.45688 263.134714,49.2224103 C261.146147,49.9879402 259.406175,51.0341494 257.914749,52.3610684 C256.423323,53.687987 255.230201,55.244542 254.335345,57.0307788 C253.440489,58.8170162 252.943355,60.6797783 252.843926,62.6191215 L284.312858,62.6191215 Z M306.833278,72.2647534 L306.833278,75.3268591 C306.833278,76.3475656 306.783564,77.3172229 306.684136,78.235859 L252.843926,78.235859 C253.042783,80.3793433 253.664202,82.3186574 254.708199,84.0538593 C255.752197,85.7890612 257.094461,87.2945813 258.73503,88.570465 C260.375599,89.8463486 262.214996,90.8415228 264.253278,91.5560177 C266.29156,92.2705127 268.404383,92.6277547 270.591807,92.6277547 C274.469515,92.6277547 277.750603,91.8877532 280.43517,90.4077279 C283.119737,88.9277031 285.307129,87.0139065 286.997411,84.6662804 L303.999583,95.6898599 C300.519589,100.895466 295.921095,104.90168 290.203961,107.708624 C284.486829,110.515567 277.850082,111.919019 270.293524,111.919019 C264.725533,111.919019 259.455907,111.025914 254.484487,109.239676 C249.513067,107.453439 245.163139,104.850676 241.434574,101.431308 C237.706009,98.0119394 234.772916,93.8015867 232.635205,88.8001226 C230.497495,83.798659 229.428655,78.0827858 229.428655,71.6523323 C229.428655,65.42602 230.472638,59.7866991 232.560634,54.7342001 C234.648631,49.6817005 237.482298,45.394796 241.06172,41.8733572 C244.641143,38.3519184 248.866786,35.6215683 253.738778,33.6822252 C258.61077,31.7428821 263.880395,30.7732248 269.547814,30.7732248 C275.016376,30.7732248 280.037435,31.7173646 284.611141,33.6056723 C289.184848,35.49398 293.112211,38.2243306 296.393348,41.7968043 C299.674485,45.3692785 302.234728,49.707218 304.074154,54.8107525 C305.913579,59.9142869 306.833278,65.7322291 306.833278,72.2647534 Z M425.267113,77.9296484 C425.267113,83.8497487 424.123704,88.8256199 421.83685,92.8574124 C419.549998,96.8892045 416.517477,100.1299 412.739197,102.579597 C408.960919,105.029294 404.660704,106.789987 399.838427,107.861729 C395.016149,108.933471 390.069661,109.469335 384.998812,109.469335 L342.940808,109.469335 L342.940808,1.07080229 L384.998812,1.07080229 C389.075376,1.07080229 393.251307,1.50459624 397.526728,2.37219711 C401.802149,3.23979798 405.679799,4.71980085 409.159793,6.81224996 C412.639787,8.90469912 415.473454,11.7371184 417.660878,15.3095926 C419.848304,18.8820668 420.941999,23.4241445 420.941999,28.9359619 C420.941999,34.9581325 419.351168,39.9340042 416.16946,43.8637259 C412.987751,47.7934471 408.811821,50.6258665 403.641544,52.3610684 L403.641544,52.6672785 C406.624395,53.1776322 409.433206,54.121772 412.068059,55.499726 C414.702912,56.8776805 416.98973,58.6383737 418.928584,60.7818581 C420.867438,62.9253429 422.408555,65.4260372 423.551982,68.2840165 C424.695409,71.1419958 425.267113,74.3571742 425.267113,77.9296484 Z M396.333593,32.4573829 C396.333593,28.7828379 394.966474,26.1035227 392.232192,24.4193562 C389.497912,22.7351897 385.446265,21.8931193 380.07713,21.8931193 L367.549215,21.8931193 L367.549215,44.2464888 L381.270266,44.2464888 C386.042829,44.2464888 389.746482,43.2513146 392.381334,41.260936 C395.016187,39.2705575 396.333593,36.3360692 396.333593,32.4573829 Z M399.763855,75.4799644 C399.763855,70.9888535 398.123312,67.8757445 394.842174,66.1405425 C391.561037,64.4053406 387.186253,63.5377532 381.717691,63.5377532 L367.549215,63.5377532 L367.549215,88.3408068 L381.866833,88.3408068 C383.855402,88.3408068 385.918509,88.162186 388.05622,87.8049385 C390.193931,87.4476911 392.132755,86.8097589 393.872752,85.8911227 C395.612749,84.9724866 397.029582,83.6711047 398.123295,81.9869382 C399.217008,80.3027717 399.763855,78.133802 399.763855,75.4799644 Z M437.144228,109.469335 L437.144228,33.2229093 L461.603492,33.2229093 L461.603492,109.469335 L437.144228,109.469335 Z M508.533461,52.0548578 L508.533461,81.1448594 C508.533461,84.7173336 509.204594,87.3966487 510.546876,89.1828861 C511.889162,90.969123 514.300261,91.8622283 517.780256,91.8622283 C518.973401,91.8622283 520.24109,91.7601589 521.583376,91.5560177 C522.925658,91.3518761 524.04421,91.0456689 524.939068,90.637386 L525.23735,109.010019 C523.547071,109.622442 521.409392,110.158306 518.82425,110.617624 C516.239113,111.076942 513.654015,111.306597 511.068873,111.306597 C506.097456,111.306597 501.921524,110.668665 498.54096,109.392782 C495.160391,108.116899 492.451009,106.279653 490.412727,103.880992 C488.374446,101.482331 486.907898,98.6243946 486.013043,95.307097 C485.118187,91.9897994 484.670766,88.2897921 484.670766,84.2069646 L484.670766,52.0548578 L472.739418,52.0548578 L472.739418,33.2229093 L484.521625,33.2229093 L484.521625,13.1661187 L508.533461,13.1661187 L508.533461,33.2229093 L525.983062,33.2229093 L525.983062,52.0548578 L508.533461,52.0548578 Z M583.392403,55.7293842 C581.403836,53.790041 579.0673,52.1569346 576.382737,50.8300156 C573.698169,49.5030965 570.864499,48.8396469 567.881649,48.8396469 C565.594799,48.8396469 563.481973,49.2989583 561.543121,50.2175944 C559.604265,51.1362306 558.634854,52.7183026 558.634854,54.9638577 C558.634854,57.1073426 559.703696,58.6383796 561.841404,59.5570158 C563.979117,60.4756519 567.4342,61.4963436 572.206761,62.6191215 C574.99076,63.2315456 577.799567,64.0991335 580.633276,65.2219108 C583.46699,66.3446887 586.027231,67.8246913 588.314085,69.6619641 C590.60094,71.4992363 592.440336,73.744758 593.832333,76.3985956 C595.22433,79.0524337 595.920321,82.2165777 595.920321,85.8911227 C595.920321,90.6884451 594.975763,94.745694 593.086621,98.0629916 C591.197485,101.380289 588.736666,104.059605 585.7041,106.101018 C582.671534,108.142432 579.266162,109.622434 575.487884,110.541071 C571.709607,111.459708 567.931384,111.919019 564.153101,111.919019 C558.08797,111.919019 552.147215,110.923844 546.33065,108.933466 C540.51409,106.943087 535.66703,104.008599 531.789322,100.129913 L545.51037,85.2787016 C547.697799,87.728398 550.382323,89.7697814 553.56403,91.4029125 C556.745742,93.0360436 560.126257,93.8525965 563.705678,93.8525965 C565.694245,93.8525965 567.657924,93.3677681 569.596781,92.3980966 C571.535633,91.428425 572.505049,89.7187667 572.505049,87.2690698 C572.505049,84.9214443 571.311923,83.1862684 568.925643,82.0634906 C566.539362,80.9407133 562.810854,79.7669178 557.740001,78.5420696 C555.154864,77.9296455 552.569766,77.113092 549.984629,76.092385 C547.399487,75.0716785 545.087814,73.6937448 543.049532,71.9585428 C541.011249,70.2233409 539.345847,68.0798886 538.053281,65.5281214 C536.76071,62.9763542 536.114434,59.9142795 536.114434,56.3418053 C536.114434,51.7486241 537.058992,47.8444785 538.948129,44.6292518 C540.83727,41.414025 543.273226,38.7857444 546.256082,36.7443304 C549.238932,34.7029169 552.544879,33.1973968 556.174015,32.2277252 C559.803151,31.2580532 563.407375,30.7732248 566.986801,30.7732248 C572.554788,30.7732248 577.998414,31.6663302 583.31783,33.452567 C588.63725,35.2388044 593.136317,37.91812 596.815169,41.4905937 L583.392403,55.7293842 Z"></path>
        </g>
        <g id="diamond" transform="translate(438.200000, 18.200000)" fill="#3F52B5">
            <path d="M15.3388267,0.0285022699 L15.3585247,7.65877039e-15 C15.3651733,0.0296244569 15.3718123,0.0592253558 15.3784411,0.0888026962 L29.7550516,21.9725019 L15.3790035,43.0287724 C15.3721877,43.0575075 15.3653615,43.0862645 15.3585247,43.1150441 L15.3388267,43.0876186 L15.3201019,43.1150441 L15.3201019,43.0615483 L0.17319582,21.9725019 L15.3201019,0.0555961077 L15.3201019,0 L15.3388267,0.0285022699 Z" id="Combined-Shape"></path>
        </g>
    </g>
</svg>