<?xml version="1.0" encoding="UTF-8"?>
<svg width="472px" height="136px" viewBox="0 0 472 136" version="1.1" xmlns="http://www.w3.org/2000/svg" xmlns:xlink="http://www.w3.org/1999/xlink">
    <!-- Generator: Sketch 52.5 (67469) - http://www.bohemiancoding.com/sketch -->
    <title>Artboard</title>
    <desc>Created with Sketch.</desc>
    <defs>
        <polygon id="path-1" points="0.301 0.542802198 85.051874 0.542802198 85.051874 88.9413187 0.301 88.9413187"></polygon>
    </defs>
    <g id="Artboard" stroke="none" stroke-width="1" fill="none" fill-rule="evenodd">
        <g id="turnitin-logo-primary-rgb" transform="translate(20.000000, 22.000000)">
            <path d="M0,34.3394615 L16.798852,17.7942747 L16.798852,27.1496813 L31.0955891,27.1496813 L31.0955891,35.2211099 L16.798852,35.2211099 L16.798852,57.4013956 C16.798852,62.5832527 18.9454683,65.1698352 23.2362236,65.1698352 C26.446858,65.1698352 29.8346224,64.1068901 33.4032326,61.9685824 L33.4032326,70.3454835 C29.9659215,72.2789011 26.2152266,73.2474725 22.1561027,73.2474725 C18.0598187,73.2474725 14.6522356,72.0504176 11.9345921,69.6488571 C11.0861027,68.9298791 10.3788218,68.1152857 9.82141994,67.2112857 C9.26773414,66.3097692 8.79827795,65.1325824 8.42667674,63.6673077 C8.0476435,62.2045165 7.85564955,59.4291868 7.85564955,55.3202088 L7.85564955,35.2211099 L0,35.2211099 L0,34.3394615" id="Fill-1" fill="#DC413A"></path>
            <path d="M67.3044109,72.4614396 L67.3044109,66.6512527 C65.4018127,68.7324396 63.2316616,70.3603846 60.796435,71.513978 C58.3537764,72.6700549 55.9222659,73.244989 53.5006647,73.244989 C50.6455287,73.244989 48.0195468,72.5359451 45.6140483,71.102956 C43.2060725,69.6736923 41.3877039,67.744 40.1601813,65.2952527 C38.9314199,62.8514725 38.3182779,58.7822308 38.3182779,53.1049121 L38.3182779,27.1447143 L47.2614804,27.1447143 L47.2614804,52.9745275 C47.2614804,57.7254945 47.9390332,61.0447143 49.297855,62.9383956 C50.6591541,64.8146923 53.0411178,65.7596703 56.4487009,65.7596703 C60.7022961,65.7596703 64.3179758,63.6747582 67.3044109,59.5049341 L67.3044109,27.1447143 L76.2476133,27.1447143 L76.2476133,72.4614396 L67.3044109,72.4614396" id="Fill-2" fill="#DC413A"></path>
            <path d="M109.875045,26.2630659 C105.550846,26.2630659 101.226647,28.5168571 96.9061631,35.507956 L96.4131722,36.2977143 L96.4131722,27.1484396 L87.4229003,27.1484396 L87.4229003,72.4626813 L96.4131722,72.4626813 L96.4131722,48.7674505 C96.4131722,44.9912637 97.4697583,41.7254396 99.5829305,38.965011 C101.696103,36.2107912 104.192024,34.8349231 107.076888,34.8349231 C109.720211,34.8349231 112.59145,34.8796264 115.688127,37.8151429 L115.688127,27.891011 C113.705015,26.8181319 111.766495,26.2630659 109.875045,26.2630659" id="Fill-3" fill="#DC413A"></path>
            <path d="M131.074894,27.1496813 L131.074894,32.908956 C135.073323,28.4808462 139.604381,26.2643077 144.682931,26.2643077 C147.498429,26.2643077 150.120695,26.9907363 152.546012,28.4535275 C154.968852,29.9163187 156.809517,31.918033 158.068006,34.4636374 C159.328973,37.0055165 159.963172,41.0412308 159.963172,46.5521538 L159.963172,72.4626813 L151.01997,72.4626813 L151.01997,46.653978 C151.01997,42.0234615 150.316405,38.7141758 148.910514,36.7236374 C147.498429,34.7417912 145.142477,33.7496264 141.832749,33.7496264 C137.608882,33.7496264 134.022931,35.8655824 131.074894,40.0925275 L131.074894,72.4626813 L121.937221,72.4626813 L121.937221,27.1496813 L131.074894,27.1496813" id="Fill-4" fill="#DC413A"></path>
            <path d="M170.758187,72.4626813 L179.70139,72.4626813 L179.70139,27.1484396 L170.758187,27.1484396 L170.758187,72.4626813 Z M175.176526,11.9555275 C176.651782,11.9555275 177.910272,12.4634066 178.959426,13.4754396 C180.006103,14.4974066 180.536254,15.7453736 180.536254,17.2218242 C180.536254,18.6672308 180.006103,19.9151978 178.959426,20.9682088 C177.910272,22.0137692 176.651782,22.5452418 175.176526,22.5452418 C173.800363,22.5452418 172.590181,22.0063187 171.543505,20.9408901 C170.493112,19.8779451 169.970393,18.6337033 169.970393,17.2218242 C169.970393,15.8434725 170.493112,14.6190989 171.543505,13.5524286 C172.590181,12.487 173.800363,11.9555275 175.176526,11.9555275 Z" id="Fill-5" fill="#367FB5"></path>
            <path d="M184.942205,34.3394615 L201.744773,17.7942747 L201.744773,27.1496813 L216.047704,27.1496813 L216.047704,35.2211099 L201.744773,35.2211099 L201.744773,57.4013956 C201.744773,62.5832527 203.895106,65.1698352 208.182145,65.1698352 C211.392779,65.1698352 214.783021,64.1068901 218.35287,61.9685824 L218.35287,70.3454835 C214.918036,72.2789011 211.164864,73.2474725 207.102024,73.2474725 C203.00574,73.2474725 199.598157,72.0504176 196.880514,69.6488571 C196.028308,68.9298791 195.324743,68.1152857 194.767341,67.2112857 C194.213656,66.3097692 193.744199,65.1325824 193.368882,63.6673077 C192.993565,62.2045165 192.809003,59.4291868 192.809003,55.3202088 L192.809003,35.2211099 L184.942205,35.2211099 L184.942205,34.3394615" id="Fill-6" fill="#367FB5"></path>
            <path d="M224.094109,72.4626813 L233.041027,72.4626813 L233.041027,27.1484396 L224.094109,27.1484396 L224.094109,72.4626813 Z M228.522356,11.9555275 C229.99142,11.9555275 231.249909,12.4634066 232.302779,13.4754396 C233.35565,14.4974066 233.872175,15.7453736 233.872175,17.2218242 C233.872175,18.6672308 233.35565,19.9151978 232.302779,20.9682088 C231.249909,22.0137692 229.99142,22.5452418 228.522356,22.5452418 C227.147432,22.5452418 225.936012,22.0063187 224.885619,20.9408901 C223.836465,19.8779451 223.312508,18.6337033 223.312508,17.2218242 C223.312508,15.8434725 223.836465,14.6190989 224.885619,13.5524286 C225.936012,12.487 227.147432,11.9555275 228.522356,11.9555275 Z" id="Fill-7" fill="#DC413A"></path>
            <path d="M253.158278,27.1496813 L253.158278,32.908956 C257.160423,28.4808462 261.695196,26.2643077 266.77003,26.2643077 C269.588006,26.2643077 272.211511,26.9907363 274.633112,28.4535275 C277.054713,29.9163187 278.896616,31.918033 280.155106,34.4636374 C281.419789,37.0055165 282.056465,41.0412308 282.056465,46.5521538 L282.056465,72.4626813 L273.110785,72.4626813 L273.110785,46.653978 C273.110785,42.0234615 272.405982,38.7141758 271.000091,36.7236374 C269.588006,34.7417912 267.229577,33.7496264 263.926042,33.7496264 C259.695982,33.7496264 256.11003,35.8655824 253.158278,40.0925275 L253.158278,72.4626813 L244.026798,72.4626813 L244.026798,27.1496813 L253.158278,27.1496813" id="Fill-8" fill="#DC413A"></path>
            <g id="Group-12" transform="translate(300.697613, 0.000000)">
                <mask id="mask-2" fill="white">
                    <use xlink:href="#path-1"></use>
                </mask>
                <g id="Clip-10"></g>
                <path d="M25.4826364,59.5938132 L41.2030455,59.5938132 C48.4553864,43.0368791 52.7505,25.0158462 53.4199318,5.94930769 L14.6554318,5.94930769 C14.0622273,18.2538022 11.4265227,29.8736813 7.07277273,40.7678681 L25.4826364,59.5938132 Z M1.301,40.7678681 C6.53038636,28.4174066 9.40943182,14.8062747 9.40943182,0.542802198 L58.4245455,0.542802198 C58.4245455,23.5595714 53.3192727,45.3811978 44.1749318,64.9357692 L25.4826364,64.9357692 L1.301,40.7678681 Z" id="Fill-9" fill="#367FB5" mask="url(#mask-2)"></path>
                <path d="M57.9837955,12.2673297 C66.8046591,10.4951538 76.3350227,13.1172308 79.9098864,17.5506044 C87.7446818,27.2604066 80.0027273,50.5373297 59.3167955,67.2575934 C40.2462955,82.6673077 17.4162273,88.599989 10.1990682,79.6422857 C5.22084091,73.4602088 8.88170455,61.2075495 15.2857727,54.7555385 L25.4836136,64.9367473 L25.4836136,40.7717802 L1.30197727,40.7717802 L11.4460682,50.9265824 C2.88418182,59.5233956 -1.04836364,73.7487253 5.83554545,83.0272198 C7.9445,85.8713077 11.1870909,87.5691538 14.9505682,88.4307912 C26.2771591,91.0235275 44.0996818,84.6321538 59.8279091,71.9237363 C82.3481818,53.7227473 91.9440227,29.4961648 82.3501364,17.6043956 C77.5253409,11.6257473 68.5911136,10.0687363 57.9837955,12.2673297" id="Fill-11" fill="#DC413A" mask="url(#mask-2)"></path>
            </g>
            <path d="M289.690393,17.2392088 C289.690393,14.3136264 287.322054,11.9518022 284.40003,11.9518022 C281.478006,11.9518022 279.127009,14.3136264 279.127009,17.2392088 C279.127009,20.171 281.478006,22.5415165 284.40003,22.5415165 C287.322054,22.5415165 289.690393,20.171 289.690393,17.2392088 Z M288.818369,17.2392088 C288.818369,19.6842308 286.835257,21.6635934 284.40003,21.6635934 C281.964804,21.6635934 280.002749,19.6842308 280.002749,17.2392088 C280.002749,14.7966703 281.964804,12.8297253 284.40003,12.8297253 C286.835257,12.8297253 288.818369,14.7966703 288.818369,17.2392088 Z M283.01148,16.9697473 L283.01148,15.2586044 L284.487976,15.2586044 C285.087492,15.2586044 285.503686,15.5876703 285.503686,16.1054835 C285.503686,16.6940769 285.03423,16.9697473 284.329426,16.9697473 L283.01148,16.9697473 Z M282.096103,20.171 L283.01148,20.171 L283.01148,17.757022 L283.558973,17.757022 C284.26006,17.757022 284.531329,18.0016484 285.24852,19.2831429 L285.752659,20.171 L286.866224,20.171 L286.181239,19.0645934 C285.709305,18.3046374 285.350091,17.8141429 284.859577,17.6427802 L284.859577,17.6117363 C285.822024,17.5583407 286.483474,16.8952418 286.483474,15.9738571 C286.483474,15.3591868 286.006586,14.484989 284.601934,14.484989 L282.096103,14.484989 L282.096103,20.171 Z" id="Fill-13" fill="#DC413A"></path>
        </g>
    </g>
</svg>