<?xml version="1.0" encoding="UTF-8"?>
<svg width="485px" height="113px" viewBox="0 0 485 113" version="1.1" xmlns="http://www.w3.org/2000/svg" xmlns:xlink="http://www.w3.org/1999/xlink">
    <!-- Generator: Sketch 48.2 (47327) - http://www.bohemiancoding.com/sketch -->
    <title>RB-Logo-White-2Col</title>
    <desc>Created with Sketch.</desc>
    <defs></defs>
    <g id="RB-v6-01" stroke="none" stroke-width="1" fill="none" fill-rule="evenodd" transform="translate(-1199.000000, -734.000000)">
        <g id="RB-Logo-White-2Col" transform="translate(1199.000000, 734.000000)" fill="#FFFFFF">
            <g id="RB-Logo-White">
                <g id="Group-17-Copy-5" transform="translate(350.000000, 0.000000)" opacity="0.699999988">
                    <g id="Group-16">
                        <g id="Group-13">
                            <path d="M14.354666,0.0264429926 L14.3733108,7.10542736e-15 C14.3796039,0.0274841021 14.3858878,0.054946348 14.3921623,0.0823867378 L28,20.3849976 L14.3926945,39.9199612 C14.3862431,39.9466201 14.3797819,39.9732997 14.3733108,40 L14.354666,39.9745558 L14.3369426,40 L14.3369426,39.950369 L0,20.3849976 L14.3369426,0.0515793117 L14.3369426,0 L14.354666,0.0264429926 Z" id="Combined-Shape"></path>
                        </g>
                    </g>
                </g>
                <path d="M46.692,111 L28.179,76.999 L21.161,76.999 L21.161,111 L0.833,111 L0.833,25.332 L33.503,25.332 C37.6170206,25.332 41.6301471,25.7554958 45.5425,26.6025 C49.4548529,27.4495042 52.9638178,28.8813233 56.0695,30.898 C59.1751822,32.9146768 61.6556574,35.5766501 63.511,38.884 C65.3663426,42.1913499 66.294,46.3053087 66.294,51.226 C66.294,57.034029 64.7210157,61.9143136 61.575,65.867 C58.4289843,69.8196864 54.0730278,72.6429915 48.507,74.337 L70.892,111 L46.692,111 Z M45.845,51.589 C45.845,49.5723233 45.4215042,47.9388396 44.5745,46.6885 C43.7274958,45.4381604 42.6385067,44.4701701 41.3075,43.7845 C39.9764933,43.0988299 38.4841749,42.6350012 36.8305,42.393 C35.1768251,42.1509988 33.5836743,42.03 32.051,42.03 L21.04,42.03 L21.04,61.995 L30.841,61.995 C32.5350085,61.995 34.2693245,61.8538347 36.044,61.5715 C37.8186755,61.2891653 39.4319927,60.7850036 40.884,60.059 C42.3360073,59.3329964 43.5258287,58.2843402 44.4535,56.913 C45.3811713,55.5416598 45.845,53.7670109 45.845,51.589 Z M113.895667,84.743 L111.354667,84.743 C109.176656,84.743 106.978511,84.8438323 104.760167,85.0455 C102.541822,85.2471677 100.565509,85.6303305 98.8311666,86.195 C97.0968245,86.7596695 95.6650055,87.5864946 94.5356666,88.6755 C93.4063276,89.7645054 92.8416666,91.1963245 92.8416666,92.971 C92.8416666,94.100339 93.1038306,95.0683293 93.6281666,95.875 C94.1525025,96.6816707 94.8179959,97.3269976 95.6246666,97.811 C96.4313373,98.2950024 97.3589946,98.6378323 98.4076666,98.8395 C99.4563385,99.0411677 100.464662,99.142 101.432667,99.142 C105.46602,99.142 108.551489,98.0328444 110.689167,95.8145 C112.826844,93.5961556 113.895667,90.5913523 113.895667,86.8 L113.895667,84.743 Z M77.4746666,58.97 C81.0240176,55.5819831 85.158143,53.0410085 89.8771666,51.347 C94.5961901,49.6529915 99.4159753,48.806 104.336667,48.806 C109.418692,48.806 113.714149,49.4311604 117.223167,50.6815 C120.732184,51.9318396 123.575656,53.8678202 125.753667,56.4895 C127.931677,59.1111798 129.524828,62.41848 130.533167,66.4115 C131.541505,70.40452 132.045667,75.1436392 132.045667,80.629 L132.045667,111 L113.895667,111 L113.895667,104.587 L113.532667,104.587 C111.999992,107.087679 109.680849,109.02366 106.575167,110.395 C103.469484,111.76634 100.101685,112.452 96.4716666,112.452 C94.0516545,112.452 91.5510128,112.129337 88.9696666,111.484 C86.3883203,110.838663 84.0288439,109.790007 81.8911666,108.338 C79.7534892,106.885993 77.9990067,104.950012 76.6276666,102.53 C75.2563264,100.109988 74.5706666,97.1253511 74.5706666,93.576 C74.5706666,89.2199782 75.760488,85.7110133 78.1401666,83.049 C80.5198451,80.3869867 83.5851478,78.3300073 87.3361666,76.878 C91.0871853,75.4259927 95.2616436,74.4580024 99.8596666,73.974 C104.45769,73.4899976 108.934645,73.248 113.290667,73.248 L113.290667,72.28 C113.290667,69.2953184 112.24201,67.0971737 110.144667,65.6855 C108.047323,64.2738263 105.466015,63.568 102.400667,63.568 C99.5773191,63.568 96.8548463,64.172994 94.2331666,65.383 C91.6114868,66.5930061 89.3730092,68.0449915 87.5176666,69.739 L77.4746666,58.97 Z M182.700667,66.956 C181.813329,66.7139988 180.946171,66.5526671 180.099167,66.472 C179.252162,66.3913329 178.425337,66.351 177.618667,66.351 C174.956653,66.351 172.718176,66.8349952 170.903167,67.803 C169.088157,68.7710048 167.636172,69.9406598 166.547167,71.312 C165.458161,72.6833402 164.671669,74.1756586 164.187667,75.789 C163.703664,77.4023414 163.461667,78.813994 163.461667,80.024 L163.461667,111 L143.617667,111 L143.617667,50.742 L162.735667,50.742 L162.735667,59.454 L162.977667,59.454 C164.510341,56.3886513 166.688319,53.8880097 169.511667,51.952 C172.335014,50.0159903 175.601981,49.048 179.312667,49.048 C180.119337,49.048 180.905829,49.0883329 181.672167,49.169 C182.438504,49.2496671 183.063664,49.3706659 183.547667,49.532 L182.700667,66.956 Z M230.665333,73.974 C230.665333,70.8279843 229.677176,68.125678 227.700833,65.867 C225.72449,63.608322 222.76002,62.479 218.807333,62.479 C216.871323,62.479 215.096675,62.781497 213.483333,63.3865 C211.869992,63.991503 210.458339,64.8183281 209.248333,65.867 C208.038327,66.9156719 207.070337,68.1458263 206.344333,69.5575 C205.618329,70.9691737 205.215,72.4413257 205.134333,73.974 L230.665333,73.974 Z M248.936333,81.597 L248.936333,84.017 C248.936333,84.8236707 248.896,85.5899964 248.815333,86.316 L205.134333,86.316 C205.295667,88.0100085 205.799829,89.5426598 206.646833,90.914 C207.493837,92.2853402 208.582826,93.4751616 209.913833,94.4835 C211.24484,95.4918384 212.737158,96.2783305 214.390833,96.843 C216.044508,97.4076695 217.758658,97.69 219.533333,97.69 C222.679349,97.69 225.341322,97.1051725 227.519333,95.9355 C229.697344,94.7658275 231.471993,93.2533426 232.843333,91.398 L246.637333,100.11 C243.813986,104.224021 240.08319,107.390156 235.444833,109.6085 C230.806477,111.826844 225.42203,112.936 219.291333,112.936 C214.773977,112.936 210.498687,112.230174 206.465333,110.8185 C202.43198,109.406826 198.902848,107.349847 195.877833,104.6475 C192.852818,101.945153 190.473175,98.6176864 188.738833,94.665 C187.004491,90.7123136 186.137333,86.1950254 186.137333,81.113 C186.137333,76.1923087 186.984325,71.73552 188.678333,67.7425 C190.372342,63.74948 192.671319,60.3615139 195.575333,57.5785 C198.479348,54.7954861 201.907647,52.6376743 205.860333,51.105 C209.81302,49.5723257 214.08831,48.806 218.686333,48.806 C223.123022,48.806 227.196648,49.5521592 230.907333,51.0445 C234.618018,52.5368408 237.80432,54.6946526 240.466333,57.518 C243.128346,60.3413475 245.205492,63.7696465 246.697833,67.803 C248.190174,71.8363535 248.936333,76.4343075 248.936333,81.597 Z M345.022666,86.074 C345.022666,90.7526901 344.095009,94.6851507 342.239666,97.8715 C340.384324,101.057849 337.924015,103.61899 334.858666,105.555 C331.793318,107.49101 328.304519,108.882496 324.392166,109.7295 C320.479813,110.576504 316.466687,111 312.352666,111 L278.230666,111 L278.230666,25.332 L312.352666,25.332 C315.660016,25.332 319.047982,25.6748299 322.516666,26.3605 C325.98535,27.0461701 329.131319,28.2158251 331.954666,29.8695 C334.778014,31.5231749 337.076991,33.7616526 338.851666,36.585 C340.626342,39.4083475 341.513666,42.9979782 341.513666,47.354 C341.513666,52.1133571 340.223012,56.0458178 337.641666,59.1515 C335.06032,62.2571822 331.672354,64.4956598 327.477666,65.867 L327.477666,66.109 C329.897678,66.5123354 332.176489,67.2584946 334.314166,68.3475 C336.451844,69.4365054 338.307158,70.8279915 339.880166,72.522 C341.453174,74.2160085 342.703495,76.192322 343.631166,78.451 C344.558838,80.709678 345.022666,83.2506526 345.022666,86.074 Z M321.548666,50.137 C321.548666,47.2329855 320.439511,45.1155067 318.221166,43.7845 C316.002822,42.4534933 312.715688,41.788 308.359666,41.788 L298.195666,41.788 L298.195666,59.454 L309.327666,59.454 C313.199686,59.454 316.204489,58.6675079 318.342166,57.0945 C320.479844,55.5214921 321.548666,53.2023487 321.548666,50.137 Z M324.331666,84.138 C324.331666,80.5886489 323.00068,78.1283402 320.338666,76.757 C317.676653,75.3856598 314.127355,74.7 309.690666,74.7 L298.195666,74.7 L298.195666,94.302 L309.811666,94.302 C311.425008,94.302 313.098824,94.1608347 314.833166,93.8785 C316.567508,93.5961653 318.140492,93.0920036 319.552166,92.366 C320.96384,91.6399964 322.113328,90.6115067 323.000666,89.2805 C323.888004,87.9494933 324.331666,86.2353438 324.331666,84.138 Z M354.658666,111 L354.658666,50.742 L374.502666,50.742 L374.502666,111 L354.658666,111 Z M412.577333,65.625 L412.577333,88.615 C412.577333,91.4383475 413.121827,93.5558263 414.210833,94.9675 C415.299838,96.3791737 417.255985,97.085 420.079333,97.085 C421.047338,97.085 422.075827,97.0043341 423.164833,96.843 C424.253838,96.6816659 425.161329,96.4396683 425.887333,96.117 L426.129333,110.637 C424.757993,111.121002 423.023677,111.544498 420.926333,111.9075 C418.828989,112.270502 416.731677,112.452 414.634333,112.452 C410.600979,112.452 407.213013,111.947838 404.470333,110.9395 C401.727652,109.931162 399.529508,108.479176 397.875833,106.5835 C396.222158,104.687824 395.032336,102.42918 394.306333,99.8075 C393.580329,97.1858202 393.217333,94.2616828 393.217333,91.035 L393.217333,65.625 L383.537333,65.625 L383.537333,50.742 L393.096333,50.742 L393.096333,34.891 L412.577333,34.891 L412.577333,50.742 L426.734333,50.742 L426.734333,65.625 L412.577333,65.625 Z M473.310999,68.529 C471.697658,66.9963257 469.80201,65.7056719 467.623999,64.657 C465.445988,63.6083281 463.147011,63.084 460.726999,63.084 C458.871657,63.084 457.157507,63.4469964 455.584499,64.173 C454.011491,64.8990036 453.224999,66.1493245 453.224999,67.924 C453.224999,69.6180085 454.092157,70.8279964 455.826499,71.554 C457.560841,72.2800036 460.36398,73.0866622 464.235999,73.974 C466.494677,74.4580024 468.773488,75.1436622 471.072499,76.031 C473.371511,76.9183378 475.448657,78.0879927 477.303999,79.54 C479.159342,80.9920073 480.65166,82.7666562 481.780999,84.864 C482.910338,86.9613438 483.474999,89.4619855 483.474999,92.366 C483.474999,96.1573523 482.708674,99.3638202 481.175999,101.9855 C479.643325,104.60718 477.646845,106.724659 475.186499,108.338 C472.726154,109.951341 469.963348,111.120996 466.897999,111.847 C463.832651,112.573004 460.767348,112.936 457.701999,112.936 C452.781308,112.936 447.961523,112.149508 443.242499,110.5765 C438.523476,109.003492 434.591015,106.684349 431.444999,103.619 L442.576999,91.882 C444.351675,93.8180097 446.529653,95.4313269 449.110999,96.722 C451.692346,98.0126731 454.434985,98.658 457.338999,98.658 C458.952341,98.658 460.545491,98.2748372 462.118499,97.5085 C463.691507,96.7421628 464.477999,95.3910097 464.477999,93.455 C464.477999,91.5996574 463.510009,90.2283378 461.573999,89.341 C459.63799,88.4536622 456.61302,87.5260048 452.498999,86.558 C450.401655,86.0739976 448.304343,85.4286707 446.206999,84.622 C444.109655,83.8153293 442.234174,82.7263402 440.580499,81.355 C438.926824,79.9836598 437.575671,78.2896768 436.526999,76.273 C435.478327,74.2563233 434.953999,71.8363475 434.953999,69.013 C434.953999,65.3829819 435.720325,62.2975127 437.252999,59.7565 C438.785674,57.2154873 440.761987,55.1383414 443.181999,53.525 C445.602011,51.9116586 448.284151,50.7218372 451.228499,49.9555 C454.172847,49.1891628 457.096985,48.806 460.000999,48.806 C464.518355,48.806 468.934811,49.5118263 473.250499,50.9235 C477.566188,52.3351737 481.216318,54.4526526 484.200999,57.276 L473.310999,68.529 Z" id="Rare-Bits"></path>
            </g>
        </g>
    </g>
</svg>