<?xml version="1.0" encoding="UTF-8"?>
<svg width="331px" height="91px" viewBox="0 0 331 91" version="1.1" xmlns="http://www.w3.org/2000/svg" xmlns:xlink="http://www.w3.org/1999/xlink">
    <!-- Generator: Sketch 52.5 (67469) - http://www.bohemiancoding.com/sketch -->
    <title>turnitin-logo-primary-rgb</title>
    <desc>Created with Sketch.</desc>
    <defs>
        <polygon id="path-1" points="0.308 0.555 87.0298246 0.555 87.0298246 90.94 0.308 90.94"></polygon>
    </defs>
    <g id="turnitin-logo-primary-rgb" stroke="none" stroke-width="1" fill="none" fill-rule="evenodd">
        <path d="M0,35.707 L13.562,22.383 L13.562,29.917 L25.104,29.917 L25.104,36.417 L13.562,36.417 L13.562,54.279 C13.562,58.452 15.295,60.535 18.759,60.535 C21.351,60.535 24.086,59.679 26.967,57.957 L26.967,64.703 C24.192,66.26 21.164,67.04 17.887,67.04 C14.58,67.04 11.829,66.076 9.635,64.142 C8.95,63.563 8.379,62.907 7.929,62.179 C7.482,61.453 7.103,60.505 6.803,59.325 C6.497,58.147 6.342,55.912 6.342,52.603 L6.342,36.417 L0,36.417 L0,35.707" id="Fill-1" fill="#DC413A"></path>
        <path d="M54.336,66.407 L54.336,61.728 C52.8,63.404 51.048,64.715 49.082,65.644 C47.11,66.575 45.147,67.038 43.192,67.038 C40.887,67.038 38.767,66.467 36.825,65.313 C34.881,64.162 33.413,62.608 32.422,60.636 C31.43,58.668 30.935,55.391 30.935,50.819 L30.935,29.913 L38.155,29.913 L38.155,50.714 C38.155,54.54 38.702,57.213 39.799,58.738 C40.898,60.249 42.821,61.01 45.572,61.01 C49.006,61.01 51.925,59.331 54.336,55.973 L54.336,29.913 L61.556,29.913 L61.556,66.407 L54.336,66.407 L89.8720562,101.634511" id="Fill-2" fill="#DC413A"></path>
        <path d="M88.704,29.203 C85.213,29.203 81.722,31.018 78.234,36.648 L77.836,37.284 L77.836,29.916 L70.578,29.916 L70.578,66.408 L77.836,66.408 L77.836,47.326 C77.836,44.285 78.689,41.655 80.395,39.432 C82.101,37.214 84.116,36.106 86.445,36.106 C88.579,36.106 90.897,36.142 93.397,38.506 L93.397,30.514 C91.796,29.65 90.231,29.203 88.704,29.203" id="Fill-3" fill="#DC413A"></path>
        <path d="M105.819,29.917 L105.819,34.555 C109.047,30.989 112.705,29.204 116.805,29.204 C119.078,29.204 121.195,29.789 123.153,30.967 C125.109,32.145 126.595,33.757 127.611,35.807 C128.629,37.854 129.141,41.104 129.141,45.542 L129.141,66.408 L121.921,66.408 L121.921,45.624 C121.921,41.895 121.353,39.23 120.218,37.627 C119.078,36.031 117.176,35.232 114.504,35.232 C111.094,35.232 108.199,36.936 105.819,40.34 L105.819,66.408 L98.442,66.408 L98.442,29.917 L105.819,29.917" id="Fill-4" fill="#DC413A"></path>
        <path d="M137.856,66.408 L145.076,66.408 L145.076,29.916 L137.856,29.916 L137.856,66.408 Z M141.423,17.681 C142.614,17.681 143.63,18.09 144.477,18.905 C145.322,19.728 145.75,20.733 145.75,21.922 C145.75,23.086 145.322,24.091 144.477,24.939 C143.63,25.781 142.614,26.209 141.423,26.209 C140.312,26.209 139.335,25.775 138.49,24.917 C137.642,24.061 137.22,23.059 137.22,21.922 C137.22,20.812 137.642,19.826 138.49,18.967 C139.335,18.109 140.312,17.681 141.423,17.681 Z" id="Fill-5" fill="#367FB5"></path>
        <path d="M149.307,35.707 L162.872,22.383 L162.872,29.917 L174.419,29.917 L174.419,36.417 L162.872,36.417 L162.872,54.279 C162.872,58.452 164.608,60.535 168.069,60.535 C170.661,60.535 173.398,59.679 176.28,57.957 L176.28,64.703 C173.507,66.26 170.477,67.04 167.197,67.04 C163.89,67.04 161.139,66.076 158.945,64.142 C158.257,63.563 157.689,62.907 157.239,62.179 C156.792,61.453 156.413,60.505 156.11,59.325 C155.807,58.147 155.658,55.912 155.658,52.603 L155.658,36.417 L149.307,36.417 L149.307,35.707" id="Fill-6" fill="#367FB5"></path>
        <path d="M180.915,66.408 L188.138,66.408 L188.138,29.916 L180.915,29.916 L180.915,66.408 Z M184.49,17.681 C185.676,17.681 186.692,18.09 187.542,18.905 C188.392,19.728 188.809,20.733 188.809,21.922 C188.809,23.086 188.392,24.091 187.542,24.939 C186.692,25.781 185.676,26.209 184.49,26.209 C183.38,26.209 182.402,25.775 181.554,24.917 C180.707,24.061 180.284,23.059 180.284,21.922 C180.284,20.812 180.707,19.826 181.554,18.967 C182.402,18.109 183.38,17.681 184.49,17.681 Z" id="Fill-7" fill="#DC413A"></path>
        <path d="M204.379,29.917 L204.379,34.555 C207.61,30.989 211.271,29.204 215.368,29.204 C217.643,29.204 219.761,29.789 221.716,30.967 C223.671,32.145 225.158,33.757 226.174,35.807 C227.195,37.854 227.709,41.104 227.709,45.542 L227.709,66.408 L220.487,66.408 L220.487,45.624 C220.487,41.895 219.918,39.23 218.783,37.627 C217.643,36.031 215.739,35.232 213.072,35.232 C209.657,35.232 206.762,36.936 204.379,40.34 L204.379,66.408 L197.007,66.408 L197.007,29.917 L204.379,29.917" id="Fill-8" fill="#DC413A"></path>
        <g id="Group-12" transform="translate(243.000000, 0.000000)">
            <mask id="mask-2" fill="white">
                <use xlink:href="#path-1"></use>
            </mask>
            <g id="Clip-10"></g>
            <path d="M25.052,60.933 L41.138,60.933 C48.559,44.004 52.954,25.578 53.639,6.083 L13.973,6.083 C13.366,18.664 10.669,30.545 6.214,41.684 L25.052,60.933 Z M0.308,41.684 C5.659,29.056 8.605,15.139 8.605,0.555 L58.76,0.555 C58.76,24.089 53.536,46.401 44.179,66.395 L25.052,66.395 L0.308,41.684 Z" id="Fill-9" fill="#367FB5" mask="url(#mask-2)"></path>
            <path d="M58.309,12.543 C67.335,10.731 77.087,13.412 80.745,17.945 C88.762,27.873 80.84,51.673 59.673,68.769 C40.159,84.525 16.798,90.591 9.413,81.432 C4.319,75.111 8.065,62.583 14.618,55.986 L25.053,66.396 L25.053,41.688 L0.309,41.688 L10.689,52.071 C1.928,60.861 -2.096,75.406 4.948,84.893 C7.106,87.801 10.424,89.537 14.275,90.418 C25.865,93.069 44.102,86.534 60.196,73.54 C83.24,54.93 93.059,30.159 83.242,18 C78.305,11.887 69.163,10.295 58.309,12.543" id="Fill-11" fill="#DC413A" mask="url(#mask-2)"></path>
        </g>
        <path d="M233.872,21.936 C233.872,19.58 231.96,17.678 229.601,17.678 C227.242,17.678 225.344,19.58 225.344,21.936 C225.344,24.297 227.242,26.206 229.601,26.206 C231.96,26.206 233.872,24.297 233.872,21.936 Z M233.168,21.936 C233.168,23.905 231.567,25.499 229.601,25.499 C227.635,25.499 226.051,23.905 226.051,21.936 C226.051,19.969 227.635,18.385 229.601,18.385 C231.567,18.385 233.168,19.969 233.168,21.936 Z M228.48,21.719 L228.48,20.341 L229.672,20.341 C230.156,20.341 230.492,20.606 230.492,21.023 C230.492,21.497 230.113,21.719 229.544,21.719 L228.48,21.719 Z M227.741,24.297 L228.48,24.297 L228.48,22.353 L228.922,22.353 C229.488,22.353 229.707,22.55 230.286,23.582 L230.693,24.297 L231.592,24.297 L231.039,23.406 C230.658,22.794 230.368,22.399 229.972,22.261 L229.972,22.236 C230.749,22.193 231.283,21.659 231.283,20.917 C231.283,20.422 230.898,19.718 229.764,19.718 L227.741,19.718 L227.741,24.297 Z" id="Fill-13" fill="#DC413A"></path>
    </g>
</svg>